<svg xmlns="http://www.w3.org/2000/svg" width="324" height="56" viewBox="0 0 324 56" fill="none" role="img" aria-label="Power Haven">
  <rect x="1" y="1" width="54" height="54" rx="12" stroke="#1C1C1A" stroke-width="1.5" />
  <path d="M16 35V21H29.5C34.5 21 37.8 23.6 37.8 28C37.8 32.4 34.5 35 29.5 35H16Z" stroke="#1C1C1A" stroke-width="2" />
  <path d="M24 21V35" stroke="#1C1C1A" stroke-width="2" />
  <path d="M123.224 31.128H118.68V38H115.992V19.328H123.224C127.672 19.328 130.264 21.536 130.264 25.216C130.264 28.944 127.672 31.128 123.224 31.128ZM123.128 21.608H118.68V28.848H123.128C126.184 28.848 127.552 27.552 127.552 25.216C127.552 22.88 126.184 21.608 123.128 21.608ZM138.364 38.264C134.372 38.264 131.636 35.48 131.636 31.704C131.636 27.952 134.372 25.168 138.364 25.168C142.308 25.168 145.068 27.952 145.068 31.704C145.068 35.48 142.308 38.264 138.364 38.264ZM138.364 35.928C140.82 35.928 142.428 34.224 142.428 31.704C142.428 29.208 140.82 27.504 138.364 27.504C135.908 27.504 134.276 29.208 134.276 31.704C134.276 34.224 135.908 35.928 138.364 35.928ZM163.56 25.408L158.176 38H155.584L152.072 29.528L148.632 38H146.04L140.68 25.408H143.248L147.384 35.4L151.184 25.408H153.488L157.24 35.4L161.472 25.408H163.56ZM176.711 31.776C176.711 31.992 176.687 32.328 176.663 32.568H166.455C166.767 34.776 168.519 36.024 170.999 36.024C172.607 36.024 173.879 35.52 174.815 34.488L176.255 36.168C175.103 37.488 173.375 38.264 170.927 38.264C166.863 38.264 163.983 35.6 163.983 31.704C163.983 27.832 166.671 25.168 170.351 25.168C174.031 25.168 176.711 27.784 176.711 31.776ZM170.351 27.312C168.159 27.312 166.575 28.608 166.407 30.744H174.143C173.975 28.632 172.415 27.312 170.351 27.312ZM182.023 27.48C182.815 25.888 184.351 25.168 186.495 25.168V27.72C186.279 27.672 186.111 27.672 185.919 27.672C183.559 27.672 182.071 29.112 182.071 31.896V38H179.431V25.408H181.951V27.48H182.023ZM194.653 38.264C190.589 38.264 187.709 35.6 187.709 31.704C187.709 27.832 190.397 25.168 194.077 25.168C197.757 25.168 200.437 27.784 200.437 31.776C200.437 31.992 200.413 32.328 200.389 32.568H190.181C190.493 34.776 192.245 36.024 194.725 36.024C196.333 36.024 197.605 35.52 198.541 34.488L199.981 36.168C198.829 37.488 197.101 38.264 194.653 38.264ZM194.077 27.312C191.885 27.312 190.301 28.608 190.133 30.744H197.869C197.701 28.632 196.141 27.312 194.077 27.312ZM215.798 20.36V38H213.278V36C212.27 37.464 210.686 38.264 208.734 38.264C205.078 38.264 202.414 35.696 202.414 31.704C202.414 27.712 205.078 25.168 208.734 25.168C210.59 25.168 212.15 25.92 213.182 27.312V20.36H215.798ZM209.022 35.928C211.478 35.928 213.086 34.224 213.086 31.704C213.086 29.208 211.478 27.504 209.022 27.504C206.566 27.504 204.934 29.208 204.934 31.704C204.934 34.224 206.566 35.928 209.022 35.928Z" fill="#1C1C1A" />
</svg>
